#!OML:ASF Y:\EmotionMaleHayes\Project 1\Capture day 1\Session 1\Male1.ASF
:FULLY-SPECIFIED
:DEGREES
3061
root -28.9204 17.4111 6.68564 1269.85 32.8272 549.256
lowerback 7.27112 3.27802 -8.58147
upperback 5.68779 4.50099 -3.05807
thorax 1.50583 2.2928 1.34393
lowerneck -24.5073 -1.11405 2.51415
upperneck 27.8042 -3.10166 3.3189
head 13.5336 -0.354947 0.371449
rclavicle 9.93923e-014 7.95139e-015
rhumerus 27.0717 17.2205 -40.071
rradius 39.111
rwrist -3.66427
rhand -6.12972 -30.3921
rfingers 7.12502
rthumb 19.7076 -59.4131
lclavicle 9.93923e-014 7.95139e-015
lhumerus 35.0068 -14.4684 36.7825
lradius 35.0472
lwrist 0.97819
lhand -17.91 -25.5343
lfingers 7.12502
lthumb 8.35714 4.28036
rfemur 6.57925 6.46191 14.7967
rtibia 21.8128
rfoot 1.43879 6.16857
rtoes 15.107
lfemur -4.87539 -0.357571 -5.45231
ltibia 14.265
lfoot -14.0181 20.5595
ltoes -7.96425
3062
root -28.9331 17.4188 6.653 1269.74 33.4363 549.048
lowerback 7.38144 3.24527 -8.88794
upperback 5.74315 4.44802 -3.15337
thorax 1.49977 2.26438 1.4116
lowerneck -24.2914 -1.00706 2.74312
upperneck 27.7303 -2.97816 3.17701
head 13.4507 -0.302056 0.299353
rclavicle 4.21423e-014 3.02153e-014
rhumerus 26.9754 17.3377 -40.018
rradius 39.316
rwrist -3.66116
rhand -5.87741 -30.4368
rfingers 7.12502
rthumb 19.9502 -59.4327
lclavicle 4.21423e-014 3.02153e-014
lhumerus 34.875 -14.662 36.7989
lradius 35.1652
lwrist 1.1062
lhand -17.8545 -25.7232
lfingers 7.12502
lthumb 8.41071 4.08933
rfemur 6.19013 6.19523 14.4252
rtibia 22.2628
rfoot 1.25724 5.41196
rtoes 17.1835
lfemur -4.34076 -0.431947 -5.90072
ltibia 13.7572
lfoot -14.2708 21.022
ltoes -6.90652
3063
root -28.9443 17.4242 6.6181 1269.57 34.0788 548.759
lowerback 7.44819 3.19264 -9.25794
upperback 5.81489 4.37558 -3.2772
thorax 1.53683 2.22437 1.48934
lowerneck -24.3027 -1.0855 2.59573
upperneck 27.7945 -3.10078 3.38424
head 13.4885 -0.337971 0.38424
rclavicle -3.33958e-014 -8.74653e-014
rhumerus 27.0586 17.3524 -40.193
rradius 39.2962
rwrist -3.56697
rhand -5.88427 -30.2811
rfingers 7.12502
rthumb 19.9436 -59.2777
lclavicle -3.33958e-014 -8.74653e-014
lhumerus 34.7612 -14.7662 36.8114
lradius 35.2801
lwrist 1.0701
lhand -17.6163 -25.9209
lfingers 7.12502
lthumb 8.64064 3.88227
rfemur 5.81989 5.54435 13.8061
rtibia 22.7547
rfoot 1.15404 5.04292
rtoes 17.3621
lfemur -3.79281 -0.463637 -6.44084
ltibia 13.2608
lfoot -14.5837 21.4265
ltoes -5.35994
3064
root -28.9562 17.4276 6.58677 1269.38 34.7323 548.277
lowerback 7.46595 3.15368 -9.76535
upperback 5.86307 4.32037 -3.43997
thorax 1.57184 2.1907 1.60213
lowerneck -24.2723 -1.14332 2.51403
upperneck 27.7615 -3.18412 3.47562
head 13.4728 -0.373007 0.418028
rclavicle 3.97569e-015 7.95139e-014
rhumerus 27.099 17.1657 -40.5755
rradius 39.1947
rwrist -3.3643
rhand -6.26731 -30.436
rfingers 7.12502
rthumb 19.5754 -59.4705
lclavicle 3.97569e-015 7.95139e-014
lhumerus 34.7468 -14.9355 36.7701
lradius 35.3845
lwrist 1.03875
lhand -17.3638 -25.8947
lfingers 7.12502
lthumb 8.88428 3.89828
rfemur 5.44971 5.48759 13.383
rtibia 23.1583
rfoot 0.633519 4.31091
rtoes 13.6475
lfemur -3.43798 -0.312799 -7.12982
ltibia 12.9327
lfoot -14.7774 21.606
ltoes -4.29997
3065
root -28.9641 17.4297 6.55908 1269.21 35.324 547.827
lowerback 7.47995 3.12246 -10.2463
upperback 5.91495 4.27645 -3.57432
thorax 1.61213 2.16187 1.72884
lowerneck -24.1698 -1.22277 2.37433
upperneck 27.6286 -3.25619 3.50898
head 13.3992 -0.424786 0.439208
rclavicle -4.77083e-015 -1.11319e-014
rhumerus 27.1379 17.204 -40.5763
rradius 39.1744
rwrist -3.46565
rhand -6.74284 -30.5861
rfingers 7.12502
rthumb 19.1181 -59.6665
lclavicle -4.77083e-015 -1.11319e-014
lhumerus 34.813 -15.1372 36.7548
lradius 35.473
lwrist 0.98971
lhand -17.4047 -25.719
lfingers 7.12502
lthumb 8.84484 4.07565
rfemur 5.00903 5.26478 12.9049
rtibia 23.5095
rfoot 0.354584 3.40026
rtoes 14.3983
lfemur -3.13589 -0.111963 -7.75253
ltibia 12.6313
lfoot -14.6834 21.9007
ltoes -4.92687
3066
root -28.972 17.434 6.53076 1269.01 35.9344 547.438
lowerback 7.48346 3.10123 -10.7292
upperback 6.02027 4.25318 -3.64841
thorax 1.70956 2.13836 1.91958
lowerneck -24.1501 -1.25965 2.22233
upperneck 27.5856 -3.27065 3.55961
head 13.3808 -0.445177 0.480867
rclavicle 3.4191e-014 2.70347e-014
rhumerus 27.4551 17.498 -40.0858
rradius 39.1649
rwrist -3.87226
rhand -6.65656 -30.7423
rfingers 7.12502
rthumb 19.2011 -59.8144
lclavicle 3.4191e-014 2.70347e-014
lhumerus 34.9176 -15.3036 36.8184
lradius 35.4815
lwrist 1.04009
lhand -18.0592 -25.8413
lfingers 7.12502
lthumb 8.21318 3.97907
rfemur 4.51598 4.93891 12.4237
rtibia 23.9918
rfoot 0.156016 2.35942
rtoes 17.4596
lfemur -2.7144 0.182107 -8.30401
ltibia 12.2491
lfoot -14.5758 22.2455
ltoes -6.13071
3067
root -28.9821 17.4408 6.50026 1268.86 36.5828 547.187
lowerback 7.49164 3.06171 -11.0228
upperback 6.1328 4.2136 -3.71726
thorax 1.82311 2.10988 2.01397
lowerneck -24.2289 -1.25417 1.99562
upperneck 27.6436 -3.25157 3.7868
head 13.4308 -0.426112 0.612533
rclavicle 0 2.06736e-014
rhumerus 27.3678 17.0218 -40.5186
rradius 39.1324
rwrist -3.29221
rhand -6.43609 -30.6727
rfingers 7.12502
rthumb 19.4131 -59.7236
lclavicle 0 2.06736e-014
lhumerus 34.9392 -15.4938 36.7115
lradius 35.5556
lwrist 1.32102
lhand -18.7305 -26.2621
lfingers 7.12502
lthumb 7.56528 3.58264
rfemur 3.85387 4.48315 12.0549
rtibia 24.7871
rfoot -0.408467 1.67008
rtoes 16.0104
lfemur -2.25257 0.517281 -8.70519
ltibia 11.8635
lfoot -14.761 22.3464
ltoes -5.85157
3068
root -28.9918 17.449 6.47362 1268.91 37.2314 547.212
lowerback 7.5476 3.05289 -11.0942
upperback 6.19668 4.20224 -3.73831
thorax 1.8607 2.10131 2.03045
lowerneck -24.2317 -1.24366 1.85682
upperneck 27.6047 -3.23733 3.95378
head 13.4218 -0.413449 0.70364
rclavicle 1.98785e-014 6.67916e-014
rhumerus 27.3373 16.9532 -40.5968
rradius 39.2954
rwrist -3.40764
rhand -6.71581 -30.4313
rfingers 7.12502
rthumb 19.1441 -59.5091
lclavicle 1.98785e-014 6.67916e-014
lhumerus 34.9894 -15.7644 36.3971
lradius 35.744
lwrist 1.63995
lhand -18.6102 -26.3487
lfingers 7.12502
lthumb 7.68137 3.49175
rfemur 3.08198 4.0034 12.0251
rtibia 25.6172
rfoot -0.988389 0.868141
rtoes 12.4352
lfemur -1.86636 0.852682 -8.79576
ltibia 11.5236
lfoot -15.0014 22.3794
ltoes -4.6621
3069
root -29.0023 17.4567 6.45042 1269.01 37.8637 547.242
lowerback 7.67274 3.05051 -11.0427
upperback 6.16979 4.18902 -3.89008
thorax 1.77888 2.10678 1.83712
lowerneck -24.1382 -1.18249 2.09826
upperneck 27.5867 -3.24405 3.98007
head 13.3932 -0.385866 0.67256
rclavicle 7.31528e-014 -2.8625e-014
rhumerus 27.2444 16.8125 -40.9152
rradius 39.221
rwrist -3.24502
rhand -6.45354 -30.6834
rfingers 7.12502
rthumb 19.3963 -59.736
lclavicle 7.31528e-014 -2.8625e-014
lhumerus 35.184 -16.0411 36.1091
lradius 35.8088
lwrist 1.69676
lhand -18.2333 -26.2782
lfingers 7.12502
lthumb 8.04517 3.54864
rfemur 2.39642 3.88243 12.0743
rtibia 26.3638
rfoot -1.53198 0.0402207
rtoes 15.4779
lfemur -1.54511 1.02902 -8.90233
ltibia 11.1483
lfoot -14.9814 22.7628
ltoes -4.86014
3070
root -29.0092 17.4607 6.42378 1268.99 38.4251 547.11
lowerback 7.65859 2.98222 -11.2535
upperback 6.21856 4.1019 -3.93861
thorax 1.84393 2.05627 1.91029
lowerneck -24.1871 -1.19967 2.34742
upperneck 27.6801 -3.29505 3.71829
head 13.4319 -0.417408 0.518475
rclavicle 5.96354e-014 2.8625e-014
rhumerus 27.3418 16.6749 -41.0442
rradius 39.1201
rwrist -2.90935
rhand -5.83793 -31.0936
rfingers 7.12502
rthumb 19.9881 -60.0855
lclavicle 5.96354e-014 2.8625e-014
lhumerus 35.2251 -15.8274 36.5777
lradius 35.6231
lwrist 1.19595
lhand -18.0467 -26.4515
lfingers 7.12502
lthumb 8.22522 3.36841
rfemur 1.78271 3.19819 11.981
rtibia 27.1453
rfoot -2.1589 -0.255455
rtoes 12.4569
lfemur -1.15375 0.957229 -9.22686
ltibia 10.6978
lfoot -14.9512 23.3136
ltoes -5.57947
3071
root -29.01 17.4653 6.39721 1268.94 38.9542 547.04
lowerback 7.67796 2.91074 -11.5157
upperback 6.29811 4.00235 -3.90161
thorax 1.91703 1.99371 2.1001
lowerneck -24.5191 -1.15741 2.58993
upperneck 28.0432 -3.24892 3.37094
head 13.639 -0.406584 0.351345
rclavicle -1.90833e-014 8.5875e-014
rhumerus 27.3813 16.5394 -41.1372
rradius 39.1679
rwrist -2.65951
rhand -5.66166 -31.0499
rfingers 7.12502
rthumb 20.1576 -60.0241
lclavicle -1.90833e-014 8.5875e-014
lhumerus 35.1756 -15.6816 36.8561
lradius 35.5735
lwrist 0.992282
lhand -17.7095 -26.5184
lfingers 7.12502
lthumb 8.55073 3.28844
rfemur 1.30571 3.07105 12.0177
rtibia 27.6733
rfoot -2.82772 -1.3083
rtoes 18.2796
lfemur -0.696805 0.87634 -9.47386
ltibia 10.2726
lfoot -15.1007 23.7295
ltoes -5.10764
